<?xml version="1.0" encoding="UTF-8"?>
<svg id="Layer_1" data-name="Layer 1" xmlns="http://www.w3.org/2000/svg" viewBox="0 0 1858.2 800.86">
  <g>
    <path d="M262.85,64.46c42.59,0,62.77,12.89,62.77,33.63,0,49.32-150.2,61.09-150.2,184.95,0,47.64,21.86,77.34,53.8,77.34,45.4,0,55.48-28.02,86.31-28.02,20.18,0,31.38,17.37,31.38,39.23,0,66.69-67.81,124.42-156.92,124.42-96.96,0-175.98-79.02-175.98-193.35,0-131.7,104.24-238.19,248.84-238.19Z"/>
    <path d="M366.53,280.22c0-117.69,87.99-215.77,216.89-215.77s216.89,98.08,216.89,215.77-87.99,215.77-216.89,215.77-216.89-98.08-216.89-215.77Z"/>
    <path d="M1060.92,348.6l58.85,122.74c8.41,16.81-2.24,26.9-19.05,17.93l-198.4-107.6c-7.85-4.48-13.45-.56-13.45,7.85v89.67c0,7.29-3.92,11.21-11.21,11.21h-21.3c-7.29,0-11.21-3.92-11.21-11.21V92.48c0-14.57,7.85-22.42,22.42-22.42h102.56c81.82,0,147.96,66.69,147.96,148.52,0,45.96-20.74,87.43-53.8,114.89-5.04,4.48-6.17,8.97-3.36,15.13Z"/>
    <path d="M1159,467.97V92.48c0-14.57,7.85-22.42,22.42-22.42h105.36c125.54,0,211.29,95.27,211.29,210.17s-85.75,210.17-211.29,210.17h-105.36c-14.57,0-22.42-7.85-22.42-22.42Z"/>
    <path d="M1686.37,81.27l169.25,382.78c6.73,15.69,0,26.34-16.81,26.34h-335.14c-16.81,0-23.54-10.65-16.81-26.34l169.25-382.78c7.85-17.93,22.42-17.93,30.26,0Z"/>
  </g>
  <g>
    <path d="M51.09,714.53c5.25,8.78,12.31,15.76,21.17,20.94,8.86,5.18,18.47,7.76,28.82,7.76s20.31-2.12,28.93-6.35c8.62-4.23,15.41-10.11,20.35-17.64s7.49-16,7.64-25.4h8.47c0,10.82-2.86,20.66-8.59,29.52-5.73,8.86-13.57,15.84-23.52,20.94-9.96,5.09-21.05,7.64-33.28,7.64s-22.97-2.98-33.17-8.94c-10.2-5.96-18.27-14-24.23-24.11-5.96-10.11-8.94-21.13-8.94-33.05v-38.58c0-11.92,2.94-22.93,8.82-33.05,5.88-10.11,13.88-18.15,23.99-24.11,10.11-5.96,21.13-8.94,33.05-8.94s23.09,2.55,33.05,7.65c9.96,5.1,17.84,12.08,23.64,20.94,5.8,8.86,8.7,18.7,8.7,29.52h-8.47c-.16-9.41-2.75-17.88-7.76-25.4-5.02-7.53-11.8-13.41-20.35-17.64-8.55-4.23-18.15-6.35-28.82-6.35s-19.92,2.59-28.7,7.76c-8.78,5.18-15.76,12.15-20.94,20.94-5.17,8.78-7.76,18.35-7.76,28.7v38.58c0,10.35,2.62,19.92,7.88,28.7Z"/>
    <path d="M395.93,609.62c5.41,8.63,8.12,18.19,8.12,28.7,0,12.23-3.73,23.17-11.17,32.81-7.45,9.64-16.98,16.04-28.58,19.17l41.63,58.1h-10.35l-40.22-56.45-7.53.24h-59.04v56.22h-8.7v-163.72h62.34c6.9,0,12.82.43,17.76,1.29,4.94.86,9.45,2.23,13.53,4.12,9.41,4.39,16.82,10.9,22.23,19.52ZM350.17,683.48c8.15,0,15.68-2.04,22.58-6.12,6.9-4.08,12.39-9.56,16.47-16.47,4.08-6.9,6.12-14.43,6.12-22.58,0-9.09-2.39-17.33-7.17-24.7-4.79-7.37-11.41-12.86-19.88-16.47-6.12-2.51-14.74-3.76-25.88-3.76h-53.63v90.09h61.39Z"/>
    <path d="M520.48,584.68h115.26v8.7h-106.56v66.33h92.68v8.7h-92.68v71.27h106.56v8.7h-115.26v-163.72Z"/>
    <path d="M811.21,584.68h9.17l67.28,163.72h-9.41l-22.11-54.1h-80.68l-22.35,54.1h-9.17l67.27-163.72ZM778.99,685.83h73.62l-36.93-89.86-36.7,89.86Z"/>
    <path d="M1120.53,584.68v8.7h-61.86v155.01h-8.47v-155.01h-61.86v-8.7h132.2Z"/>
    <path d="M1346.35,584.68v8.7h-48.93v146.31h48.93v8.7h-106.09v-8.7h48.69v-146.31h-48.69v-8.7h106.09Z"/>
    <path d="M1469.13,584.68l62.57,152.19,62.57-152.19h9.17l-67.27,163.72h-9.17l-67.27-163.72h9.41Z"/>
    <path d="M1714.23,584.68h115.26v8.7h-106.56v66.33h92.68v8.7h-92.68v71.27h106.56v8.7h-115.26v-163.72Z"/>
  </g>
</svg>